<svg xmlns="http://www.w3.org/2000/svg" xmlns:xlink="http://www.w3.org/1999/xlink" width="1541" height="650" contentStyleType="text/css" preserveAspectRatio="none" style="width:1541px;height:650px" version="1.1" viewBox="0 0 1541 650" zoomAndPan="magnify"><g><g id="cluster_PostgREST"><path fill="none" d="M188.09,128.8 L273.9923,128.8 A3.75,3.75 0 0 1 276.4923,131.3 L283.4923,151.0969 L806.09,151.0969 A2.5,2.5 0 0 1 808.59,153.5969 L808.59,510.89 A2.5,2.5 0 0 1 806.09,513.39 L188.09,513.39 A2.5,2.5 0 0 1 185.59,510.89 L185.59,131.3 A2.5,2.5 0 0 1 188.09,128.8" style="stroke:#000;stroke-width:1.5"/><line style="stroke:#000;stroke-width:1.5" x1="185.59" x2="283.492" y1="151.097" y2="151.097"/><text x="189.59" y="143.795" fill="#000" font-family="sans-serif" font-size="14" font-weight="bold" lengthAdjust="spacing" textLength="84.902">PostgREST</text></g><g id="cluster_PostgreSQL"><path fill="none" d="M840.59,310.1 C840.59,300.1 1122.09,300.1 1122.09,300.1 C1122.09,300.1 1403.59,300.1 1403.59,310.1 L1403.59,623.69 C1403.59,633.69 1122.09,633.69 1122.09,633.69 C1122.09,633.69 840.59,633.69 840.59,623.69 L840.59,310.1" style="stroke:#181818;stroke-width:1"/><path fill="none" d="M840.59,310.1 C840.59,320.1 1122.09,320.1 1122.09,320.1 C1122.09,320.1 1403.59,320.1 1403.59,310.1" style="stroke:#181818;stroke-width:1"/><text x="1075.975" y="335.095" fill="#000" font-family="sans-serif" font-size="14" font-weight="bold" lengthAdjust="spacing" textLength="92.231">PostgreSQL</text></g><g id="cluster_Authorization"><a href="../explanations/db_authz.html" target="_top" title="../explanations/db_authz.html" xlink:actuate="onRequest" xlink:href="../explanations/db_authz.html" xlink:show="new" xlink:title="../explanations/db_authz.html" xlink:type="simple"><polygon fill="none" points="880.59 394.1 890.59 384.1 1103.59 384.1 1103.59 506.39 1093.59 516.39 880.59 516.39 880.59 394.1" style="stroke:#181818;stroke-width:1"/><line style="stroke:#181818;stroke-width:1" x1="1093.59" x2="1103.59" y1="394.1" y2="384.1"/><line style="stroke:#181818;stroke-width:1" x1="880.59" x2="1093.59" y1="394.1" y2="394.1"/><line style="stroke:#181818;stroke-width:1" x1="1093.59" x2="1093.59" y1="394.1" y2="516.39"/><text x="934.363" y="410.095" fill="#000" font-family="sans-serif" font-size="14" font-weight="bold" lengthAdjust="spacing" textLength="107.454">Authorization</text></a></g><g id="cluster_API"><a href="../explanations/schema_isolation.html" target="_top" title="../explanations/schema_isolation.html" xlink:actuate="onRequest" xlink:href="../explanations/schema_isolation.html" xlink:show="new" xlink:title="../explanations/schema_isolation.html" xlink:type="simple"><polygon fill="none" points="1143.59 394.1 1153.59 384.1 1351.59 384.1 1351.59 506.39 1341.59 516.39 1143.59 516.39 1143.59 394.1" style="stroke:#181818;stroke-width:1"/><line style="stroke:#181818;stroke-width:1" x1="1341.59" x2="1351.59" y1="394.1" y2="384.1"/><line style="stroke:#181818;stroke-width:1" x1="1143.59" x2="1341.59" y1="394.1" y2="394.1"/><line style="stroke:#181818;stroke-width:1" x1="1341.59" x2="1341.59" y1="394.1" y2="516.39"/><text x="1197.936" y="410.095" fill="#000" font-family="sans-serif" font-size="14" font-weight="bold" lengthAdjust="spacing" textLength="91.308">API schema</text></a></g><g id="elem_HTTPAPI"><a href="../explanations/architecture.html#http" target="_top" title="../explanations/architecture.html#http" xlink:actuate="onRequest" xlink:href="../explanations/architecture.html#http" xlink:show="new" xlink:title="../explanations/architecture.html#http" xlink:type="simple"><ellipse cx="210.59" cy="474.24" fill="#F1F1F1" rx="8" ry="8" style="stroke:#181818;stroke-width:.5"/><text x="192.553" y="504.235" fill="#000" font-family="sans-serif" font-size="14" lengthAdjust="spacing" textLength="36.073">HTTP</text></a></g><g id="elem_Auth"><a href="../references/auth.html#authn" target="_top" title="../references/auth.html#authn" xlink:actuate="onRequest" xlink:href="../references/auth.html#authn" xlink:show="new" xlink:title="../references/auth.html#authn" xlink:type="simple"><rect width="72.813" height="46.297" x="254.19" y="451.1" fill="#F1F1F1" rx="2.5" ry="2.5" style="stroke:#181818;stroke-width:.5"/><rect width="15" height="10" x="307.002" fill="#F1F1F1" style="stroke:#181818;stroke-width:.5" y="456.1"/><rect width="4" height="2" x="305.002" fill="#F1F1F1" style="stroke:#181818;stroke-width:.5" y="458.1"/><rect width="4" height="2" x="305.002" fill="#F1F1F1" style="stroke:#181818;stroke-width:.5" y="462.1"/><text x="269.19" y="484.095" fill="#000" font-family="sans-serif" font-size="14" lengthAdjust="spacing" textLength="32.813">Auth</text></a></g><g id="elem_ApiRequest"><a href="../explanations/architecture.html#api-request" target="_top" title="../explanations/architecture.html#api-request" xlink:actuate="onRequest" xlink:href="../explanations/architecture.html#api-request" xlink:show="new" xlink:title="../explanations/architecture.html#api-request" xlink:type="simple"><rect width="119.851" height="46.297" x="361.67" y="451.1" fill="#F1F1F1" rx="2.5" ry="2.5" style="stroke:#181818;stroke-width:.5"/><rect width="15" height="10" x="461.521" fill="#F1F1F1" style="stroke:#181818;stroke-width:.5" y="456.1"/><rect width="4" height="2" x="459.521" fill="#F1F1F1" style="stroke:#181818;stroke-width:.5" y="458.1"/><rect width="4" height="2" x="459.521" fill="#F1F1F1" style="stroke:#181818;stroke-width:.5" y="462.1"/><text x="376.67" y="484.095" fill="#000" font-family="sans-serif" font-size="14" lengthAdjust="spacing" textLength="79.851">ApiRequest</text></a></g><g id="elem_Plan"><a href="../explanations/architecture.html#plan" target="_top" title="../explanations/architecture.html#plan" xlink:actuate="onRequest" xlink:href="../explanations/architecture.html#plan" xlink:show="new" xlink:title="../explanations/architecture.html#plan" xlink:type="simple"><rect width="69.784" height="46.297" x="516.7" y="451.1" fill="#F1F1F1" rx="2.5" ry="2.5" style="stroke:#181818;stroke-width:.5"/><rect width="15" height="10" x="566.484" fill="#F1F1F1" style="stroke:#181818;stroke-width:.5" y="456.1"/><rect width="4" height="2" x="564.484" fill="#F1F1F1" style="stroke:#181818;stroke-width:.5" y="458.1"/><rect width="4" height="2" x="564.484" fill="#F1F1F1" style="stroke:#181818;stroke-width:.5" y="462.1"/><text x="531.7" y="484.095" fill="#000" font-family="sans-serif" font-size="14" lengthAdjust="spacing" textLength="29.784">Plan</text></a></g><g id="elem_Query"><a href="../explanations/architecture.html#query" target="_top" title="../explanations/architecture.html#query" xlink:actuate="onRequest" xlink:href="../explanations/architecture.html#query" xlink:show="new" xlink:title="../explanations/architecture.html#query" xlink:type="simple"><rect width="82.547" height="46.297" x="622.32" y="451.1" fill="#F1F1F1" rx="2.5" ry="2.5" style="stroke:#181818;stroke-width:.5"/><rect width="15" height="10" x="684.867" fill="#F1F1F1" style="stroke:#181818;stroke-width:.5" y="456.1"/><rect width="4" height="2" x="682.867" fill="#F1F1F1" style="stroke:#181818;stroke-width:.5" y="458.1"/><rect width="4" height="2" x="682.867" fill="#F1F1F1" style="stroke:#181818;stroke-width:.5" y="462.1"/><text x="637.32" y="484.095" fill="#000" font-family="sans-serif" font-size="14" lengthAdjust="spacing" textLength="42.547">Query</text></a></g><g id="elem_Connection Pool"><a href="../references/connection_pool.html" target="_top" title="../references/connection_pool.html" xlink:actuate="onRequest" xlink:href="../references/connection_pool.html" xlink:show="new" xlink:title="../references/connection_pool.html" xlink:type="simple"><ellipse cx="783.59" cy="474.24" fill="#F1F1F1" rx="8" ry="8" style="stroke:#181818;stroke-width:.5"/><text x="727.026" y="504.235" fill="#000" font-family="sans-serif" font-size="14" lengthAdjust="spacing" textLength="113.128">Connection Pool</text></a></g><g id="elem_Schema Cache"><a href="../references/schema_cache.html#schema-cache" target="_top" title="../references/schema_cache.html#schema-cache" xlink:actuate="onRequest" xlink:href="../references/schema_cache.html#schema-cache" xlink:show="new" xlink:title="../references/schema_cache.html#schema-cache" xlink:type="simple"><rect width="144.275" height="46.297" x="546.46" y="182.8" fill="#F1F1F1" rx="2.5" ry="2.5" style="stroke:#181818;stroke-width:.5"/><rect width="15" height="10" x="670.735" fill="#F1F1F1" style="stroke:#181818;stroke-width:.5" y="187.8"/><rect width="4" height="2" x="668.735" fill="#F1F1F1" style="stroke:#181818;stroke-width:.5" y="189.8"/><rect width="4" height="2" x="668.735" fill="#F1F1F1" style="stroke:#181818;stroke-width:.5" y="193.8"/><text x="561.46" y="215.795" fill="#000" font-family="sans-serif" font-size="14" lengthAdjust="spacing" textLength="104.275">Schema Cache</text></a></g><g id="elem_Listener"><a href="../references/listener.html#listener" target="_top" title="../references/listener.html#listener" xlink:actuate="onRequest" xlink:href="../references/listener.html#listener" xlink:show="new" xlink:title="../references/listener.html#listener" xlink:type="simple"><ellipse cx="783.59" cy="205.95" fill="#F1F1F1" rx="8" ry="8" style="stroke:#181818;stroke-width:.5"/><text x="755.426" y="235.945" fill="#000" font-family="sans-serif" font-size="14" lengthAdjust="spacing" textLength="56.328">Listener</text></a></g><g id="elem_HTTPADMIN"><a href="../explanations/architecture.html#http" target="_top" title="../explanations/architecture.html#http" xlink:actuate="onRequest" xlink:href="../explanations/architecture.html#http" xlink:show="new" xlink:title="../explanations/architecture.html#http" xlink:type="simple"><ellipse cx="329.59" cy="205.95" fill="#F1F1F1" rx="8" ry="8" style="stroke:#181818;stroke-width:.5"/><text x="311.553" y="235.945" fill="#000" font-family="sans-serif" font-size="14" lengthAdjust="spacing" textLength="36.073">HTTP</text></a></g><g id="elem_Admin"><a href="../references/admin_server.html#admin-server" target="_top" title="../references/admin_server.html#admin-server" xlink:actuate="onRequest" xlink:href="../references/admin_server.html#admin-server" xlink:show="new" xlink:title="../references/admin_server.html#admin-server" xlink:type="simple"><rect width="84.864" height="46.297" x="201.16" y="182.8" fill="#F1F1F1" rx="2.5" ry="2.5" style="stroke:#181818;stroke-width:.5"/><rect width="15" height="10" x="266.024" fill="#F1F1F1" style="stroke:#181818;stroke-width:.5" y="187.8"/><rect width="4" height="2" x="264.024" fill="#F1F1F1" style="stroke:#181818;stroke-width:.5" y="189.8"/><rect width="4" height="2" x="264.024" fill="#F1F1F1" style="stroke:#181818;stroke-width:.5" y="193.8"/><text x="216.16" y="215.795" fill="#000" font-family="sans-serif" font-size="14" lengthAdjust="spacing" textLength="44.864">Admin</text></a></g><g id="elem_Config"><a href="../references/configuration.html#configuration" target="_top" title="../references/configuration.html#configuration" xlink:actuate="onRequest" xlink:href="../references/configuration.html#configuration" xlink:show="new" xlink:title="../references/configuration.html#configuration" xlink:type="simple"><rect width="84.919" height="46.297" x="426.13" y="182.8" fill="#F1F1F1" rx="2.5" ry="2.5" style="stroke:#181818;stroke-width:.5"/><rect width="15" height="10" x="491.049" fill="#F1F1F1" style="stroke:#181818;stroke-width:.5" y="187.8"/><rect width="4" height="2" x="489.049" fill="#F1F1F1" style="stroke:#181818;stroke-width:.5" y="189.8"/><rect width="4" height="2" x="489.049" fill="#F1F1F1" style="stroke:#181818;stroke-width:.5" y="193.8"/><text x="441.13" y="215.795" fill="#000" font-family="sans-serif" font-size="14" lengthAdjust="spacing" textLength="44.919">Config</text></a></g><g id="elem_CLI"><a href="../references/cli.html#cli" target="_top" title="../references/cli.html#cli" xlink:actuate="onRequest" xlink:href="../references/cli.html#cli" xlink:show="new" xlink:title="../references/cli.html#cli" xlink:type="simple"><ellipse cx="382.59" cy="205.95" fill="#F1F1F1" rx="8" ry="8" style="stroke:#181818;stroke-width:.5"/><text x="371.738" y="235.945" fill="#000" font-family="sans-serif" font-size="14" lengthAdjust="spacing" textLength="21.704">CLI</text></a></g><g id="elem_tbs"><rect width="150.505" height="36.297" x="1217.34" y="573.39" fill="#F1F1F1" rx="2.5" ry="2.5" style="stroke:#181818;stroke-width:.5"/><text x="1227.34" y="596.385" fill="#000" font-family="sans-serif" font-size="14" lengthAdjust="spacing" textLength="130.505">Tables, extensions</text></g><g id="elem_Roles, GRANT, RLS"><rect width="151.482" height="36.297" x="904.85" y="456.1" fill="#F1F1F1" rx="2.5" ry="2.5" style="stroke:#181818;stroke-width:.5"/><text x="914.85" y="479.095" fill="#000" font-family="sans-serif" font-size="14" lengthAdjust="spacing" textLength="131.482">Roles, GRANT, RLS</text></g><g id="elem_Functions, Views"><rect width="137.332" height="36.297" x="1167.93" y="456.1" fill="#F1F1F1" rx="2.5" ry="2.5" style="stroke:#181818;stroke-width:.5"/><text x="1177.93" y="479.095" fill="#000" font-family="sans-serif" font-size="14" lengthAdjust="spacing" textLength="117.332">Functions, Views</text></g><g id="elem_user"><ellipse cx="37.588" cy="444.6" fill="#F1F1F1" rx="8" ry="8" style="stroke:#181818;stroke-width:.5"/><path fill="none" d="M37.5881,452.6 L37.5881,479.6 M24.5881,460.6 L50.5881,460.6 M37.5881,479.6 L24.5881,494.6 M37.5881,479.6 L50.5881,494.6" style="stroke:#181818;stroke-width:.5"/><text x="22.32" y="509.095" fill="#000" font-family="sans-serif" font-size="14" lengthAdjust="spacing" textLength="30.536">user</text></g><g id="elem_Proxy"><a href="../explanations/nginx.html" target="_top" title="../explanations/nginx.html" xlink:actuate="onRequest" xlink:href="../explanations/nginx.html" xlink:show="new" xlink:title="../explanations/nginx.html" xlink:type="simple"><polygon fill="#F1F1F1" points="166.93 474.24 147.26 461.1 107.93 461.1 88.26 474.24 107.93 487.39 147.26 487.39 166.93 474.24" style="stroke:#181818;stroke-width:.5"/><text x="107.927" y="479.095" fill="#000" font-family="sans-serif" font-size="14" lengthAdjust="spacing" textLength="39.334">Proxy</text></a></g><g id="elem_operator"><ellipse cx="353.596" cy="14" fill="#F1F1F1" rx="8" ry="8" style="stroke:#181818;stroke-width:.5"/><path fill="none" d="M353.5955,22 L353.5955,49 M340.5955,30 L366.5955,30 M353.5955,49 L340.5955,64 M353.5955,49 L366.5955,64" style="stroke:#181818;stroke-width:.5"/><text x="323.49" y="78.495" fill="#000" font-family="sans-serif" font-size="14" lengthAdjust="spacing" textLength="60.211">operator</text></g><g id="elem_developer"><ellipse cx="1499.595" cy="444.6" fill="#F1F1F1" rx="8" ry="8" style="stroke:#181818;stroke-width:.5"/><path fill="none" d="M1499.5947,452.6 L1499.5947,479.6 M1486.5947,460.6 L1512.5947,460.6 M1499.5947,479.6 L1486.5947,494.6 M1499.5947,479.6 L1512.5947,494.6" style="stroke:#181818;stroke-width:.5"/><text x="1464.54" y="509.095" fill="#000" font-family="sans-serif" font-size="14" lengthAdjust="spacing" textLength="70.109">developer</text></g><g id="elem_GMN55"><path fill="#FEFFDD" d="M6,578.98 L6,604.1128 L229.1855,604.1128 L229.1855,588.98 L219.1855,578.98 L6,578.98" style="stroke:#181818;stroke-width:.5"/><path fill="#FEFFDD" d="M219.1855,578.98 L219.1855,588.98 L229.1855,588.98 L219.1855,578.98" style="stroke:#181818;stroke-width:1"/><text x="12" y="596.047" fill="#000" font-family="sans-serif" font-size="13" lengthAdjust="spacing" textLength="202.185">Authenticates the user request</text></g><g id="elem_GMN58"><path fill="#FEFFDD" d="M264.25,578.98 L264.25,604.1128 A0,0 0 0 0 264.25,604.1128 L430.9287,604.1128 A0,0 0 0 0 430.9287,604.1128 L430.9287,588.98 L420.9287,578.98 L359.2,578.98 L407.15,497.75 L351.2,578.98 L264.25,578.98 A0,0 0 0 0 264.25,578.98" style="stroke:#181818;stroke-width:.5"/><path fill="#FEFFDD" d="M420.9287,578.98 L420.9287,588.98 L430.9287,588.98 L420.9287,578.98" style="stroke:#181818;stroke-width:.5"/><text x="270.25" y="596.047" fill="#000" font-family="sans-serif" font-size="13" lengthAdjust="spacing" textLength="145.679">Parses the URL syntax</text></g><g id="elem_GMN61"><path fill="#FEFFDD" d="M465.62,578.98 L465.62,604.1128 A0,0 0 0 0 465.62,604.1128 L637.5673,604.1128 A0,0 0 0 0 637.5673,604.1128 L637.5673,588.98 L627.5673,578.98 L555.59,578.98 L551.59,497.75 L547.59,578.98 L465.62,578.98 A0,0 0 0 0 465.62,578.98" style="stroke:#181818;stroke-width:.5"/><path fill="#FEFFDD" d="M627.5673,578.98 L627.5673,588.98 L637.5673,588.98 L627.5673,578.98" style="stroke:#181818;stroke-width:.5"/><text x="471.62" y="596.047" fill="#000" font-family="sans-serif" font-size="13" lengthAdjust="spacing" textLength="150.947">Generates internal AST</text></g><g id="elem_GMN64"><path fill="#FEFFDD" d="M672.69,578.98 L672.69,604.1128 A0,0 0 0 0 672.69,604.1128 L816.5045,604.1128 A0,0 0 0 0 816.5045,604.1128 L816.5045,588.98 L806.5045,578.98 L740.26,578.98 L679.4,497.75 L732.26,578.98 L672.69,578.98 A0,0 0 0 0 672.69,578.98" style="stroke:#181818;stroke-width:.5"/><path fill="#FEFFDD" d="M806.5045,578.98 L806.5045,588.98 L816.5045,588.98 L806.5045,578.98" style="stroke:#181818;stroke-width:.5"/><text x="678.69" y="596.047" fill="#000" font-family="sans-serif" font-size="13" lengthAdjust="spacing" textLength="122.814">Generates the SQL</text></g><g id="elem_GMN67"><path fill="#FEFFDD" d="M724.36,31.08 L724.36,56.2128 A0,0 0 0 0 724.36,56.2128 L779.59,56.2128 L783.59,196.8 L787.59,56.2128 L842.8219,56.2128 A0,0 0 0 0 842.8219,56.2128 L842.8219,41.08 L832.8219,31.08 L724.36,31.08 A0,0 0 0 0 724.36,31.08" style="stroke:#181818;stroke-width:.5"/><path fill="#FEFFDD" d="M832.8219,31.08 L832.8219,41.08 L842.8219,41.08 L832.8219,31.08" style="stroke:#181818;stroke-width:.5"/><text x="730.36" y="48.147" fill="#000" font-family="sans-serif" font-size="13" lengthAdjust="spacing" textLength="97.462">LISTEN session</text></g><g id="link_HTTPAPI_Auth"><path id="HTTPAPI-Auth" fill="none" d="M219.97,474.24 C231.28,474.24 242.59,474.24 253.9,474.24" style="stroke:#181818;stroke-width:1"/></g><g id="link_Auth_ApiRequest"><path id="Auth-to-ApiRequest" fill="none" d="M327.44,474.24 C338.72,474.24 343.99,474.24 355.27,474.24" style="stroke:#181818;stroke-width:1;stroke-dasharray:7,7"/><polygon fill="#181818" points="361.27 474.24 352.27 470.24 356.27 474.24 352.27 478.24 361.27 474.24" style="stroke:#181818;stroke-width:1"/></g><g id="link_ApiRequest_Plan"><path id="ApiRequest-to-Plan" fill="none" d="M481.77,474.24 C493.31,474.24 498.86,474.24 510.41,474.24" style="stroke:#181818;stroke-width:1;stroke-dasharray:7,7"/><polygon fill="#181818" points="516.41 474.24 507.41 470.24 511.41 474.24 507.41 478.24 516.41 474.24" style="stroke:#181818;stroke-width:1"/></g><g id="link_Plan_Query"><path id="Plan-to-Query" fill="none" d="M586.59,474.24 C598.42,474.24 604.25,474.24 616.08,474.24" style="stroke:#181818;stroke-width:1;stroke-dasharray:7,7"/><polygon fill="#181818" points="622.08 474.24 613.08 470.24 617.08 474.24 613.08 478.24 622.08 474.24" style="stroke:#181818;stroke-width:1"/></g><g id="link_Query_Connection Pool"><path id="Query-Connection Pool" fill="none" d="M705.23,474.24 C730.14,474.24 759.72,474.24 774.39,474.24" style="stroke:#181818;stroke-width:1"/></g><g id="link_Schema Cache_Plan"><path id="Schema Cache-backto-Plan" fill="none" d="M611.5352,235.0085 C598.9152,285.1385 569.86,400.63 557.22,450.87" style="stroke:#181818;stroke-width:1"/><polygon fill="#181818" points="613 229.19 606.924 236.941 611.779 234.039 614.682 238.894 613 229.19" style="stroke:#181818;stroke-width:1"/><text x="605.12" y="272.167" fill="#000" font-family="sans-serif" font-size="13" lengthAdjust="spacing" textLength="29.783">uses</text></g><g id="link_Schema Cache_Listener"><path id="Schema Cache-backto-Listener" fill="none" d="M696.96,205.95 C729.52,205.95 758.22,205.95 774.35,205.95" style="stroke:#181818;stroke-width:1"/><polygon fill="#181818" points="690.96 205.95 699.96 209.95 695.96 205.95 699.96 201.95 690.96 205.95" style="stroke:#181818;stroke-width:1"/><text x="709.16" y="199.017" fill="#000" font-family="sans-serif" font-size="13" lengthAdjust="spacing" textLength="47.899">reloads</text></g><g id="link_Admin_HTTPADMIN"><path id="Admin-HTTPADMIN" fill="none" d="M286.26,205.95 C297.54,205.95 308.83,205.95 320.11,205.95" style="stroke:#181818;stroke-width:1"/></g><g id="link_CLI_Config"><path id="CLI-Config" fill="none" d="M392,205.95 C403.27,205.95 414.54,205.95 425.81,205.95" style="stroke:#181818;stroke-width:1"/></g><g id="link_Config_Listener"><path id="Config-backto-Listener" fill="none" d="M480.1117,176.8949 C491.5717,151.0449 511.61,116.68 546.09,101.3 C575.52,88.17 661.67,88.17 691.09,101.3 C735.82,121.26 767.56,174.88 778.95,196.61" style="stroke:#181818;stroke-width:1;stroke-dasharray:1,3"/><polygon fill="#181818" points="477.68 182.38 484.984 175.773 479.706 177.809 477.671 172.531 477.68 182.38" style="stroke:#181818;stroke-width:1"/></g><g id="link_API_tbs"><path id="API-tbs" fill="none" d="M1327.8472,516.512 C1327.7784,516.6976 1327.7094,516.8832 1327.6403,517.0688 C1327.3638,517.8113 1327.0852,518.554 1326.8047,519.2961 C1326.2437,520.7804 1325.675,522.2621 1325.1002,523.734 C1323.9505,526.6778 1322.7763,529.5825 1321.59,532.39 C1315.71,546.32 1308.04,561.6 1302.07,573" style="stroke:#181818;stroke-width:1"/></g><g id="link_user_Proxy"><path id="user-to-Proxy" fill="none" d="M53.06,474.24 C64.51,474.24 69.96,474.24 81.42,474.24" style="stroke:#181818;stroke-width:1;stroke-dasharray:7,7"/><polygon fill="#181818" points="87.42 474.24 78.42 470.24 82.42 474.24 78.42 478.24 87.42 474.24" style="stroke:#181818;stroke-width:1"/></g><g id="link_Proxy_HTTPAPI"><path id="Proxy-to-HTTPAPI" fill="none" d="M167.8,474.24 C178.94,474.24 184.09,474.24 195.23,474.24" style="stroke:#181818;stroke-width:1;stroke-dasharray:7,7"/><polygon fill="#181818" points="201.23 474.24 192.23 470.24 196.23 474.24 192.23 478.24 201.23 474.24" style="stroke:#181818;stroke-width:1"/></g><g id="link_operator_HTTPADMIN"><path id="operator-to-HTTPADMIN" fill="none" d="M347.97,82.23 C342.31,119.99 334.8877,169.566 331.7477,190.556" style="stroke:#181818;stroke-width:1;stroke-dasharray:7,7"/><polygon fill="#181818" points="330.86 196.49 336.147 188.181 331.6 191.545 328.236 186.997 330.86 196.49" style="stroke:#181818;stroke-width:1"/></g><g id="link_operator_CLI"><path id="operator-to-CLI" fill="none" d="M360.39,82.23 C367.22,119.99 376.1911,169.596 379.9911,190.586" style="stroke:#181818;stroke-width:1;stroke-dasharray:7,7"/><polygon fill="#181818" points="381.06 196.49 383.393 186.921 380.169 191.57 375.521 188.346 381.06 196.49" style="stroke:#181818;stroke-width:1"/></g><g id="link_PostgreSQL_developer"><path id="PostgreSQL-backto-developer" fill="none" d="M1409.7057,474.24 C1409.9773,474.24 1404.4563,474.24 1404.7366,474.24 C1405.2972,474.24 1405.875,474.24 1406.4691,474.24 C1411.2213,474.24 1417.0113,474.24 1423.355,474.24 C1436.0425,474.24 1450.945,474.24 1464.19,474.24" style="stroke:#181818;stroke-width:1;stroke-dasharray:7,7"/><polygon fill="#181818" points="1403.706 474.24 1412.706 478.24 1408.706 474.24 1412.706 470.24 1403.706 474.24" style="stroke:#181818;stroke-width:1"/></g><g id="link_Listener_PostgreSQL"><path id="Listener-to-PostgreSQL" fill="none" d="M792.89,206.73 C860.42,205.38 1275.47,200.57 1359.59,284.1 C1363.2006,287.685 1366.5018,291.5141 1369.5175,295.5455 C1370.2714,296.5533 1371.0075,297.5738 1371.7261,298.6063 C1371.9057,298.8644 1368.6981,294.1701 1368.8756,294.4298" style="stroke:#181818;stroke-width:1;stroke-dasharray:7,7"/><polygon fill="#181818" points="1372.262 299.383 1370.485 289.696 1369.44 295.255 1363.88 294.211 1372.262 299.383" style="stroke:#181818;stroke-width:1"/></g><g id="link_Connection Pool_PostgreSQL"><path id="Connection Pool-to-PostgreSQL" fill="none" d="M786.24,465.14 C790.66,450.87 800.7525,421.7975 817.4875,392.1288 C821.6713,384.7116 826.2702,377.2571 831.2994,369.9874 C833.814,366.3525 836.4362,362.7638 839.1678,359.249 C839.5093,358.8097 836.1353,363.0813 836.4802,362.6443" style="stroke:#181818;stroke-width:1;stroke-dasharray:7,7"/><polygon fill="#181818" points="840.197 357.935 831.482 362.521 837.1 361.859 837.761 367.477 840.197 357.935" style="stroke:#181818;stroke-width:1"/></g><g id="link_Auth_GMN55"><path id="Auth-GMN55" fill="none" d="M273.14,497.75 C263.52,509.13 250.86,522.57 237.59,532.39 C210.61,552.36 175.7,568.37 150.49,578.49" style="stroke:#181818;stroke-width:1;stroke-dasharray:7,7"/></g></g></svg>