<svg xmlns="http://www.w3.org/2000/svg" xmlns:xlink="http://www.w3.org/1999/xlink" width="328" height="391" contentStyleType="text/css" preserveAspectRatio="none" style="width:328px;height:391px" version="1.1" viewBox="0 0 328 391" zoomAndPan="magnify"><g><g id="cluster_PostgreSQL"><path fill="none" d="M6,16 C6,6 158.5,6 158.5,6 C158.5,6 311,6 311,16 L311,293.59 C311,303.59 158.5,303.59 158.5,303.59 C158.5,303.59 6,303.59 6,293.59 L6,16" style="stroke:#e7e7e7;stroke-width:1"/><path fill="none" d="M6,16 C6,26 158.5,26 158.5,26 C158.5,26 311,26 311,16" style="stroke:#e7e7e7;stroke-width:1"/><text x="112.385" y="40.995" fill="#FFF" font-family="sans-serif" font-size="14" font-weight="bold" lengthAdjust="spacing" textLength="92.231">PostgreSQL</text></g><g id="cluster_public"><polygon fill="none" points="30 74 40 64 153 64 153 146.29 143 156.29 30 156.29 30 74" style="stroke:#e7e7e7;stroke-width:1"/><line style="stroke:#e7e7e7;stroke-width:1" x1="143" x2="153" y1="74" y2="64"/><line style="stroke:#e7e7e7;stroke-width:1" x1="30" x2="143" y1="74" y2="74"/><line style="stroke:#e7e7e7;stroke-width:1" x1="143" x2="143" y1="74" y2="156.29"/><text x="63.547" y="89.995" fill="#FFF" font-family="sans-serif" font-size="14" font-weight="bold" lengthAdjust="spacing" textLength="47.906">public</text></g><g id="cluster_API"><polygon fill="none" points="70 190.29 80 180.29 246 180.29 246 269.59 236 279.59 70 279.59 70 190.29" style="stroke:#e7e7e7;stroke-width:1"/><line style="stroke:#e7e7e7;stroke-width:1" x1="236" x2="246" y1="190.29" y2="180.29"/><line style="stroke:#e7e7e7;stroke-width:1" x1="70" x2="236" y1="190.29" y2="190.29"/><line style="stroke:#e7e7e7;stroke-width:1" x1="236" x2="236" y1="190.29" y2="279.59"/><text x="136.666" y="211.855" fill="#FFF" font-family="sans-serif" font-size="20" font-weight="bold" lengthAdjust="spacing" textLength="34.668">api</text></g><g id="elem_tables_public"><rect width="62.752" height="36.297" x="71.62" y="104" fill="#313139" rx="2.5" ry="2.5" style="stroke:#e7e7e7;stroke-width:.5"/><text x="81.62" y="126.995" fill="#FFF" font-family="sans-serif" font-size="14" lengthAdjust="spacing" textLength="42.752">tables</text></g><g id="elem_extensions"><polygon fill="none" points="169.14 109 179.14 99 294.87 99 294.87 135.297 284.87 145.297 169.14 145.297 169.14 109" style="stroke:#e7e7e7;stroke-width:1"/><line style="stroke:#e7e7e7;stroke-width:1" x1="284.87" x2="294.87" y1="109" y2="99"/><line style="stroke:#e7e7e7;stroke-width:1" x1="169.14" x2="284.87" y1="109" y2="109"/><line style="stroke:#e7e7e7;stroke-width:1" x1="284.87" x2="284.87" y1="109" y2="145.297"/><text x="184.14" y="131.995" fill="#FFF" font-family="sans-serif" font-size="14" font-weight="bold" lengthAdjust="spacing" textLength="85.73">extensions</text></g><g id="elem_vf_api"><rect width="144.647" height="36.297" x="85.68" y="227.29" fill="#313139" rx="2.5" ry="2.5" style="stroke:#e7e7e7;stroke-width:.5"/><text x="95.68" y="250.285" fill="#FFF" font-family="sans-serif" font-size="14" lengthAdjust="spacing" textLength="124.647">views + functions</text></g><g id="elem_PostgREST"><ellipse cx="158" cy="352.59" fill="#313139" rx="8" ry="8" style="stroke:#e7e7e7;stroke-width:.5"/><text x="120.655" y="382.585" fill="#FFF" font-family="sans-serif" font-size="14" lengthAdjust="spacing" textLength="74.689">PostgREST</text></g><g id="link_tables_public_vf_api"><path id="tables_public-backto-vf_api" fill="none" d="M110.03,146.6 C110.03,169.85 110.03,203.55 110.03,226.86" style="stroke:#e7e7e7;stroke-width:1"/><polygon fill="#E7E7E7" points="110.03 140.6 106.03 149.6 110.03 145.6 114.03 149.6 110.03 140.6" style="stroke:#e7e7e7;stroke-width:1"/></g><g id="link_extensions_vf_api"><path id="extensions-backto-vf_api" fill="none" d="M199.73,151.63 C199.73,175.24 199.73,205.18 199.73,226.88" style="stroke:#e7e7e7;stroke-width:1"/><polygon fill="#E7E7E7" points="199.73 145.63 195.73 154.63 199.73 150.63 203.73 154.63 199.73 145.63" style="stroke:#e7e7e7;stroke-width:1"/></g><g id="link_vf_api_PostgREST"><path id="vf_api-PostgREST" fill="none" d="M158,269.62 C158,292.9 158,320.34 158,337.81" style="stroke:#e7e7e7;stroke-width:3"/><polygon fill="#E7E7E7" points="158 263.62 154 272.62 158 268.62 162 272.62 158 263.62" style="stroke:#e7e7e7;stroke-width:3"/><polygon fill="#E7E7E7" points="158 343.81 162 334.81 158 338.81 154 334.81 158 343.81" style="stroke:#e7e7e7;stroke-width:3"/></g></g></svg>